<?xml version="1.0" encoding="utf-8"?>
<svg version="1.1" class="icon-cards" xmlns="http://www.w3.org/2000/svg" xmlns:xlink="http://www.w3.org/1999/xlink" x="0px" y="0px"
	 viewBox="0 0 38 38" style="enable-background:new 0 0 38 38;" xml:space="preserve">
<style type="text/css">
	.st0{fill:#EAEDEF;}
	.st1{fill:#D3E0E2;}
</style>
<rect class="st0" width="38" height="38"/>
<g id="small">
	<path class="st1" d="M1.8,1.8h9.8v9.8H1.8V1.8z"/>
	<path id="Rectangle_2_copy_2" class="st1" d="M14.1,1.8h9.8v9.8h-9.8L14.1,1.8L14.1,1.8z"/>
	<path id="Rectangle_2_copy" class="st1" d="M26.3,1.8h9.8v9.8h-9.8V1.8z"/>
	<path id="Rectangle_2_copy_3" class="st1" d="M1.8,14.1h9.8v9.8H1.8V14.1z"/>
	<path id="Rectangle_2_copy_3-2" class="st1" d="M14.1,14.1h9.8v9.8h-9.8L14.1,14.1L14.1,14.1z"/>
	<path id="Rectangle_2_copy_3-3" class="st1" d="M26.3,14.1h9.8v9.8h-9.8V14.1z"/>
	<path id="Rectangle_2_copy_4" class="st1" d="M1.8,26.3h9.8v9.8H1.8V26.3z"/>
	<path id="Rectangle_2_copy_4-2" class="st1" d="M14.1,26.3h9.8v9.8h-9.8L14.1,26.3L14.1,26.3z"/>
	<path id="Rectangle_2_copy_4-3" class="st1" d="M26.3,26.3h9.8v9.8h-9.8V26.3z"/>
</g>
</svg>
